<?xml version="1.0" encoding="utf-8"?>
<!-- Generator: Adobe Illustrator 22.0.0, SVG Export Plug-In . SVG Version: 6.00 Build 0)  -->
<svg version="1.1" id="Layer_1" xmlns="http://www.w3.org/2000/svg" xmlns:xlink="http://www.w3.org/1999/xlink" x="0px" y="0px"
	 viewBox="0 0 196 55.4" style="enable-background:new 0 0 196 55.4;" xml:space="preserve">
<style type="text/css">
	.st0{fill-rule:evenodd;clip-rule:evenodd;fill:#006FBA;}
	.st1{fill-rule:evenodd;clip-rule:evenodd;fill:#FFCE34;}
	.st2{fill-rule:evenodd;clip-rule:evenodd;fill:#00AAE7;}
	.st3{fill-rule:evenodd;clip-rule:evenodd;fill:#ED1944;}
	.st4{fill:#343741;}
</style>
<g id="XMLID_834_">
	<g id="XMLID_835_">
		<g id="XMLID_852_">
			<g id="XMLID_853_">
				<path id="XMLID_854_" class="st0" d="M117.1,19.1c-0.7-0.6-2.7-2.4-2.7-2.4l2.4,4.6c0,0-3.4-4.9-4.4-6.1
					c0.3,1.9,1.5,7.1,4.4,9.4c1,0.8,3.3,2,8.6,3.8C120.6,25,120,21.8,117.1,19.1z"/>
			</g>
		</g>
		<g id="XMLID_846_">
			<g id="XMLID_847_">
				<path id="XMLID_851_" class="st1" d="M132.4,2.5c-0.5,0.9-0.3,2.1-0.5,2.9c0-1.2-0.5-1.3,0.1-5.4c-0.3,1-3.5,7.8-3.3,13.5
					c0.1,3.1,1.2,6.5,1,9.6c0,0.4,0,1.9-1.3,5.2c1.9-2.3,5.7-6.1,4.7-9.9c0.2,0.6,0.4,1.5,0.4,2.1c0-0.9,0-2,0-2.8
					c0.1,0.3,0.2,1,0.2,1.3c0.7-2.8,0.3-6,0.1-8.9c0,1.1-0.2,2.1-0.7,3c0.6-2.8,0.2-5.5,0.4-8.5c-0.1,1-0.7,1.6-0.9,2.6
					c0-0.7-0.1-0.7,0.2-2.8C132,7.3,132.2,3.7,132.4,2.5z"/>
			</g>
		</g>
		<g id="XMLID_839_">
			<g id="XMLID_844_">
				<path id="XMLID_845_" class="st2" d="M123.7,4.1c-0.6,1.4-1.1,2.9-1.5,4.3c0.3-0.5,0.6-1.1,0.9-1.7c-1.4,4-0.8,6.4,0.3,9.7
					c-0.3-1.5,0.3-2.7,0.2-3.2c0,2.2,1.5,4.6,2.4,6.1c1.5,2.6,2.4,5.1,1.8,9c-3.5-2.2-6.2-6.1-7.1-8.4c0.4,0.7,2.1,2.7,4.5,4.8
					C122.4,21.9,113.5,10.3,123.7,4.1z"/>
			</g>
		</g>
		<g id="XMLID_836_">
			<g id="XMLID_837_">
				<path id="XMLID_838_" class="st3" d="M148,15.4c1.5-2.2,0.9-4.1,3-6.5c-2.3,1.3-2.4,3.4-5.1,4.7c-2.8,1.5-3.4,3.4-4.4,5.2
					c-0.1,0.2-0.2-2.2,1-3.6c-2.3,2.3-2.1,4.9-3.5,6.1c-1.1,1-1.1-0.4-0.3-2.2c-1.4,1.3-3.1,6.4-8.8,9.3c5.6,0.5,8.9-1.1,11.6-3.3
					C145.4,21.8,146.6,17.3,148,15.4z"/>
			</g>
		</g>
	</g>
</g>
<g id="XMLID_953_">
	<g id="XMLID_1068_">
		<g id="XMLID_1069_">
			<path id="XMLID_1070_" class="st4" d="M4.5,43.1c-1.3,0-2.4-0.4-3.3-1.3c-0.5-0.5-0.9-1.1-1-1.8c-0.1-0.7-0.2-1.7-0.2-3
				c0-1.3,0.1-2.3,0.2-3c0.1-0.7,0.5-1.3,1-1.8c0.9-0.9,2-1.3,3.3-1.3c2.3,0,4.1,1.4,4.5,3.8H6.5c-0.3-1-0.9-1.7-2-1.7
				c-0.6,0-1.2,0.2-1.5,0.6c-0.5,0.5-0.6,1.1-0.6,3.4s0.1,2.9,0.6,3.4C3.3,40.8,3.8,41,4.5,41c1.1,0,1.8-0.7,2-1.7h2.4
				C8.5,41.7,6.8,43.1,4.5,43.1z"/>
		</g>
	</g>
	<g id="XMLID_1061_">
		<g id="XMLID_1062_">
			<path id="XMLID_1063_" class="st4" d="M19.3,43.1V38h-4.1v5.1h-2.4V30.9h2.4v5h4.1v-5h2.4v12.2H19.3z"/>
		</g>
	</g>
	<g id="XMLID_1054_">
		<g id="XMLID_1055_">
			<path id="XMLID_1056_" class="st4" d="M26.3,43.1V30.9h2.4v12.2H26.3z"/>
		</g>
	</g>
	<g id="XMLID_1047_">
		<g id="XMLID_1048_">
			<path id="XMLID_1049_" class="st4" d="M36.6,43.1c-1.8,0-3.2-0.4-4.4-1.6l1.5-1.5c0.8,0.8,1.8,1,2.9,1c1.4,0,2.1-0.5,2.1-1.5
				c0-0.4-0.1-0.8-0.4-1c-0.2-0.2-0.5-0.3-1.1-0.4l-1.5-0.2c-1-0.2-1.8-0.5-2.4-1c-0.6-0.6-0.9-1.4-0.9-2.4c0-2.2,1.6-3.7,4.2-3.7
				c1.7,0,2.9,0.4,3.9,1.4l-1.5,1.5c-0.8-0.7-1.7-0.8-2.5-0.8c-1.3,0-1.9,0.7-1.9,1.5c0,0.3,0.1,0.6,0.4,0.9
				c0.2,0.2,0.6,0.4,1.1,0.5l1.4,0.2c1.1,0.2,1.8,0.5,2.3,0.9c0.6,0.6,0.9,1.5,0.9,2.6C41.1,41.8,39.1,43.1,36.6,43.1z"/>
		</g>
	</g>
	<g id="XMLID_1040_">
		<g id="XMLID_1041_">
			<path id="XMLID_1042_" class="st4" d="M45.1,43.1V30.9h8.1V33h-5.7v2.9h4.8V38h-4.8v3h5.7v2.1H45.1z"/>
		</g>
	</g>
	<g id="XMLID_1033_">
		<g id="XMLID_1034_">
			<path id="XMLID_1035_" class="st4" d="M57.2,43.1V30.9h2.4V41h5.6v2.1H57.2z"/>
		</g>
	</g>
	<g id="XMLID_1026_">
		<g id="XMLID_1027_">
			<path id="XMLID_1028_" class="st4" d="M76,43.1l-3.1-5.6l-1.6,1.9v3.7h-2.4V30.9h2.4v5.3l4.3-5.3h2.9l-4.1,4.9l4.4,7.4H76z"/>
		</g>
	</g>
	<g id="XMLID_1017_">
		<g id="XMLID_1018_">
			<path id="XMLID_1019_" class="st4" d="M88.5,43.1l-2.4-4.9h-1.7v4.9H82V30.9h4.8c2.5,0,4,1.7,4,3.7c0,1.7-1,2.8-2.2,3.2l2.7,5.3
				H88.5z M86.6,33h-2.3v3.2h2.3c1,0,1.7-0.7,1.7-1.6C88.4,33.7,87.7,33,86.6,33z"/>
		</g>
	</g>
	<g id="XMLID_1008_">
		<g id="XMLID_1009_">
			<path id="XMLID_1010_" class="st4" d="M101.9,43.1l-0.7-2.2h-4.4l-0.7,2.2h-2.5l4.5-12.2h1.9l4.5,12.2H101.9z M99.1,34.5
				l-1.5,4.4h3L99.1,34.5z"/>
		</g>
	</g>
	<g id="XMLID_1001_">
		<g id="XMLID_1002_">
			<path id="XMLID_1003_" class="st4" d="M110,33v3h4.8v2.1H110v5h-2.4V30.9h8.1V33H110z"/>
		</g>
	</g>
	<g id="XMLID_994_">
		<g id="XMLID_995_">
			<path id="XMLID_996_" class="st4" d="M124.2,33v10.1h-2.4V33h-3.2v-2.1h8.8V33H124.2z"/>
		</g>
	</g>
	<g id="XMLID_987_">
		<g id="XMLID_988_">
			<path id="XMLID_989_" class="st4" d="M143.9,30.9h7.4v0.8h-6.5v4.8h5.5v0.8h-5.5v4.9h6.5v0.8h-7.4V30.9z"/>
		</g>
	</g>
	<g id="XMLID_980_">
		<g id="XMLID_981_">
			<path id="XMLID_982_" class="st4" d="M159.1,43.1c-1.8,0-2.9-0.5-4-1.6l0.6-0.6c1.1,1.1,2,1.4,3.4,1.4c1.9,0,3.1-0.9,3.1-2.5
				c0-0.7-0.2-1.3-0.7-1.7c-0.5-0.4-0.8-0.5-1.8-0.6l-1.4-0.2c-0.9-0.1-1.6-0.4-2.2-0.9c-0.6-0.5-1-1.3-1-2.2c0-2,1.4-3.3,3.8-3.3
				c1.5,0,2.5,0.4,3.5,1.3l-0.6,0.6c-0.7-0.7-1.5-1.1-3-1.1c-1.8,0-2.8,1-2.8,2.5c0,0.7,0.2,1.2,0.6,1.6c0.4,0.4,1.1,0.6,1.8,0.7
				l1.3,0.2c1.1,0.2,1.7,0.4,2.2,0.8c0.7,0.5,1.1,1.4,1.1,2.4C163.1,41.8,161.6,43.1,159.1,43.1z"/>
		</g>
	</g>
	<g id="XMLID_973_">
		<g id="XMLID_974_">
			<path id="XMLID_975_" class="st4" d="M167.7,30.9h0.9v12.2h-0.9V30.9z"/>
		</g>
	</g>
	<g id="XMLID_966_">
		<g id="XMLID_967_">
			<path id="XMLID_968_" class="st4" d="M181,41.7c-0.8,0.9-2,1.4-3.2,1.4c-1.2,0-2.2-0.4-3-1.2c-1.1-1.1-1.1-2.2-1.1-4.9
				c0-2.7,0-3.8,1.1-4.9c0.8-0.8,1.9-1.2,3-1.2c2.1,0,3.8,1.4,4.1,3.5H181c-0.4-1.7-1.6-2.7-3.2-2.7c-0.9,0-1.7,0.3-2.3,0.9
				c-0.9,0.9-0.9,1.8-0.9,4.4s0.1,3.5,0.9,4.4c0.6,0.6,1.4,0.9,2.3,0.9c1,0,1.9-0.4,2.5-1.2c0.5-0.7,0.7-1.4,0.7-2.4v-1.1h-3.3v-0.8
				h4.2v2C182,40.1,181.7,40.9,181,41.7z"/>
		</g>
	</g>
	<g id="XMLID_959_">
		<g id="XMLID_960_">
			<path id="XMLID_961_" class="st4" d="M188,32.5v10.6h-0.9V30.9h0.9l7.1,10.6V30.9h0.9v12.2h-0.9L188,32.5z"/>
		</g>
	</g>
	<g id="XMLID_954_">
		<g id="XMLID_955_">
			<path id="XMLID_956_" class="st4" d="M137.7,32c-0.7-0.7-1.8-1.1-3.1-1.1h-4.1v0.8h0.9h1.9h1c1,0,1.9,0.2,2.6,0.9
				c1,1,0.9,2.8,0.9,4.2c0,1.4,0.1,3.5-0.9,4.5c-0.7,0.7-1.7,0.9-2.6,0.9h-1h-1.9h-0.9v0.8h4.1c1.3,0,2.3-0.4,3.1-1.1
				c1.2-1.2,1.2-3.5,1.2-5.2C138.9,35.2,138.9,33.2,137.7,32z"/>
		</g>
	</g>
</g>
<g id="XMLID_855_">
	<g id="XMLID_946_">
		<g id="XMLID_947_">
			<path id="XMLID_948_" class="st4" d="M27.4,55.3v-8.8h0.9v8h4.5v0.8H27.4z"/>
		</g>
	</g>
	<g id="XMLID_937_">
		<g id="XMLID_938_">
			<path id="XMLID_939_" class="st4" d="M47.2,55.3l-0.7-2h-3.9l-0.7,2h-1l3.3-8.8h0.8l3.2,8.8H47.2z M44.6,47.9l-1.7,4.7h3.3
				L44.6,47.9z"/>
		</g>
	</g>
	<g id="XMLID_926_">
		<g id="XMLID_927_">
			<path id="XMLID_928_" class="st4" d="M60.5,55.3h-3.4v-8.8h3.3c1.5,0,2.6,0.9,2.6,2.4c0,0.9-0.6,1.7-1.3,1.9
				c0.8,0.3,1.4,1,1.4,2.1C63.2,54.5,62.1,55.3,60.5,55.3z M60.3,47.3H58v3.1h2.3c1,0,1.7-0.5,1.7-1.5S61.3,47.3,60.3,47.3z
				 M60.4,51.3H58v3.2h2.4c1.1,0,1.8-0.6,1.8-1.6C62.2,51.9,61.5,51.3,60.4,51.3z"/>
		</g>
	</g>
	<g id="XMLID_917_">
		<g id="XMLID_918_">
			<path id="XMLID_919_" class="st4" d="M77.9,54.5c-0.6,0.6-1.4,0.9-2.3,0.9c-0.9,0-1.7-0.3-2.3-0.9c-0.8-0.8-0.8-1.7-0.8-3.6
				c0-1.9,0-2.7,0.8-3.6c0.6-0.6,1.4-0.9,2.3-0.9c0.9,0,1.7,0.3,2.3,0.9c0.8,0.8,0.8,1.7,0.8,3.6C78.7,52.8,78.7,53.7,77.9,54.5z
				 M77.2,47.9c-0.4-0.4-0.9-0.6-1.5-0.6c-0.6,0-1.1,0.2-1.5,0.6c-0.6,0.6-0.6,1.2-0.6,3c0,1.9,0.1,2.4,0.6,3
				c0.4,0.4,0.9,0.6,1.5,0.6c0.6,0,1.1-0.2,1.5-0.6c0.6-0.6,0.6-1.2,0.6-3C77.8,49.1,77.7,48.5,77.2,47.9z"/>
		</g>
	</g>
	<g id="XMLID_908_">
		<g id="XMLID_909_">
			<path id="XMLID_910_" class="st4" d="M93.5,55.3l-2-3.9h-2.1v3.9h-0.9v-8.8h3.4c1.5,0,2.6,0.9,2.6,2.5c0,1.3-0.8,2.1-1.9,2.4
				l2.1,4H93.5z M91.7,47.3h-2.4v3.2h2.4c1,0,1.8-0.5,1.8-1.6C93.5,47.9,92.8,47.3,91.7,47.3z"/>
		</g>
	</g>
	<g id="XMLID_893_">
		<g id="XMLID_896_">
			<path id="XMLID_899_" class="st4" d="M109.2,55.3l-0.7-2h-3.9l-0.7,2h-1l3.3-8.8h0.8l3.2,8.8H109.2z M106.6,47.9l-1.7,4.7h3.3
				L106.6,47.9z"/>
		</g>
	</g>
	<g id="XMLID_881_">
		<g id="XMLID_882_">
			<path id="XMLID_883_" class="st4" d="M121,47.3v8H120v-8h-2.6v-0.8h6.1v0.8H121z"/>
		</g>
	</g>
	<g id="XMLID_872_">
		<g id="XMLID_873_">
			<path id="XMLID_874_" class="st4" d="M137.4,54.5c-0.6,0.6-1.4,0.9-2.3,0.9c-0.9,0-1.7-0.3-2.3-0.9c-0.8-0.8-0.8-1.7-0.8-3.6
				c0-1.9,0-2.7,0.8-3.6c0.6-0.6,1.4-0.9,2.3-0.9c0.9,0,1.7,0.3,2.3,0.9c0.8,0.8,0.8,1.7,0.8,3.6C138.2,52.8,138.2,53.7,137.4,54.5z
				 M136.7,47.9c-0.4-0.4-0.9-0.6-1.5-0.6s-1.1,0.2-1.5,0.6c-0.6,0.6-0.6,1.2-0.6,3c0,1.9,0.1,2.4,0.6,3c0.4,0.4,0.9,0.6,1.5,0.6
				s1.1-0.2,1.5-0.6c0.6-0.6,0.6-1.2,0.6-3C137.3,49.1,137.2,48.5,136.7,47.9z"/>
		</g>
	</g>
	<g id="XMLID_863_">
		<g id="XMLID_864_">
			<path id="XMLID_865_" class="st4" d="M153,55.3l-2-3.9h-2.1v3.9h-0.9v-8.8h3.4c1.5,0,2.6,0.9,2.6,2.5c0,1.3-0.8,2.1-1.9,2.4
				l2.1,4H153z M151.2,47.3h-2.4v3.2h2.4c1,0,1.8-0.5,1.8-1.6C153,47.9,152.3,47.3,151.2,47.3z"/>
		</g>
	</g>
	<g id="XMLID_856_">
		<g id="XMLID_857_">
			<path id="XMLID_858_" class="st4" d="M166,51.7v3.7H165v-3.7l-2.6-5.2h1l2.1,4.2l2.1-4.2h1L166,51.7z"/>
		</g>
	</g>
</g>
</svg>
